<svg xmlns="http://www.w3.org/2000/svg" width="92.64" height="92.64" viewBox="0 0 92.64 92.64"><defs><style>.a{fill:#fff;}</style></defs><path class="a" d="M79.073,13.567A46.32,46.32,0,0,0,13.567,79.073a46.338,46.338,0,0,0,56.721,6.891,3.619,3.619,0,0,0-3.75-6.19A39.429,39.429,0,1,1,78.775,68.011a3.619,3.619,0,1,0,6.017,4.023,46.206,46.206,0,0,0-5.719-58.467Z"/><path class="a" d="M179.255,146.386a8.155,8.155,0,0,0-12.24,7.074v23.7a8.134,8.134,0,0,0,12.24,7.074l20.418-11.848a8.183,8.183,0,0,0,0-14.147Zm16.786,19.736-20.418,11.848a.862.862,0,0,1-.9,0,.9.9,0,0,1-.467-.815v-23.7a.9.9,0,0,1,.467-.815.907.907,0,0,1,.452-.127.89.89,0,0,1,.452.129l20.418,11.848a.946.946,0,0,1,0,1.627Z" transform="translate(-136.796 -118.987)"/></svg>