<svg xmlns="http://www.w3.org/2000/svg" width="20.51" height="20.515" viewBox="0 0 20.51 20.515">
  <g id="Icon_ionic-md-photos" data-name="Icon ionic-md-photos" transform="translate(-3.375 -3.375)">
    <path id="Path_75" data-name="Path 75" d="M20.729,23.124V9.98a2.11,2.11,0,0,0-2.105-2.105H5.48A2.11,2.11,0,0,0,3.375,9.98V23.129A2.11,2.11,0,0,0,5.48,25.234H18.629A2.117,2.117,0,0,0,20.729,23.124ZM8.764,17.341,11,20.5l3.288-4.733,4.339,6.311H5.48Z" transform="translate(0 -1.345)" fill="#fff"/>
    <path id="Path_76" data-name="Path 76" d="M23.124,3.375H9.98A2.11,2.11,0,0,0,7.875,5.48v.261H20.758a2.11,2.11,0,0,1,2.105,2.105V20.729h.261a2.11,2.11,0,0,0,2.105-2.105V5.48A2.11,2.11,0,0,0,23.124,3.375Z" transform="translate(-1.345)" fill="#fff"/>
  </g>
</svg>
