<svg id="Group_225" data-name="Group 225" xmlns="http://www.w3.org/2000/svg" width="50.291" height="35.761" viewBox="0 0 50.291 35.761">
  <path id="Path_33" data-name="Path 33" d="M80.115,572.88a33.121,33.121,0,0,1-6.89.722c-.769,0-1.537-.029-2.292-.08a23.2,23.2,0,0,1-16.713,1.337,20.307,20.307,0,0,0,9.682,7.476,32.926,32.926,0,0,1,16.21-9.452" transform="translate(-50.658 -547.797)" fill="#3b3c43"/>
  <path id="Path_34" data-name="Path 34" d="M469.782,562.566A32.8,32.8,0,0,0,458,559.92c-.1.21-.2.419-.309.624-.035.07-.07.134-.109.2-.07.14-.145.275-.221.411-.045.08-.092.158-.14.238-.07.12-.14.242-.21.362-.052.084-.105.168-.159.251-.07.112-.14.224-.21.333-.056.087-.115.17-.173.256-.07.106-.14.21-.216.317-.061.086-.124.17-.185.254-.074.1-.149.2-.225.3s-.13.168-.194.251-.154.2-.233.293-.14.164-.2.246-.158.188-.239.279l-.219.243c-.082.09-.165.182-.249.272s-.148.157-.223.235-.169.176-.255.262-.156.152-.233.228-.175.169-.264.252-.159.148-.24.221-.181.163-.273.243-.164.14-.247.209-.186.158-.28.234-.169.14-.254.2-.191.151-.288.224-.174.132-.262.2-.2.144-.3.214-.179.127-.269.188l-.131.092-.236.168a32.824,32.824,0,0,1,18.488-5.667c.178,0,.356,0,.534.006" transform="translate(-419.492 -535.743)" fill="#3b3c43"/>
  <path id="Path_35" data-name="Path 35" d="M211.8,567.279c.088-.065.175-.13.263-.2s.193-.148.288-.224.17-.135.255-.2.188-.155.279-.234l.248-.21c.091-.08.182-.161.271-.243s.161-.146.241-.22.176-.169.264-.253.155-.151.231-.228.171-.174.256-.262.15-.155.224-.234.166-.182.247-.273.144-.16.215-.241.159-.188.239-.279.14-.164.205-.247.154-.194.232-.293c.065-.083.131-.166.195-.251.076-.1.15-.2.224-.3.061-.085.124-.169.184-.255.074-.1.145-.209.217-.317.058-.085.117-.169.173-.256.07-.11.14-.222.21-.333.053-.084.107-.167.158-.252.073-.119.14-.24.21-.36.046-.08.094-.159.14-.239q.113-.2.222-.41c.036-.07.07-.134.108-.2.106-.21.21-.414.31-.625-.414-.015-.831-.026-1.249-.026a33.111,33.111,0,0,0-6.884.717c-.308.065-.615.136-.919.21a32.918,32.918,0,0,0-16.21,9.452,20.308,20.308,0,0,0,18.393-2.306c.09-.061.179-.124.268-.187s.2-.14.3-.214" transform="translate(-179.602 -535.454)" fill="#ffcf21"/>
  <path id="Path_44" data-name="Path 44" d="M23.514,464.25A32.844,32.844,0,0,1,3.24,455.4,20.068,20.068,0,0,0,6.8,465.586a23.2,23.2,0,0,0,16.712-1.336" transform="translate(-3.24 -438.525)" fill="#839db1"/>
  <path id="Path_45" data-name="Path 45" d="M308.656,216.238a9.75,9.75,0,0,0-2.747-2.348,22.978,22.978,0,0,1-3.515,18.006,23.223,23.223,0,0,1-8.985,7.719c.757.052,1.522.08,2.292.08a33.176,33.176,0,0,0,6.9-.724c.3-.073.6-.143.912-.208a33.113,33.113,0,0,1,6.89-.723c.419,0,.835.01,1.249.026a20.268,20.268,0,0,0,1.936-8.629,21.953,21.953,0,0,0-4.93-13.2" transform="translate(-273.136 -213.89)" fill="#839db1"/>
</svg>
